<svg id="af8b3646-6fec-4cc7-8dea-b8340556bfbc" xmlns="http://www.w3.org/2000/svg" viewBox="0 0 368.218 322.422">
	<path d="M40.613,354.24c-5.98,0-13.517-1.747-16.735-6.65-3.987-6.076.023-16.4,16.5-42.495l.8-1.272c4.957-7.873,75.783-134.031,79.749-141.262.678-1.237,2.171-3.764,4.237-7.261,4.261-7.212,15.38-26.034,20.34-36.277-8.128,4.1-21.358,13.849-25.172,17.662-3.6,3.6-7.526,7.124-12.347,7.124h0a9.623,9.623,0,0,1-6.424-2.49,10.321,10.321,0,0,1-3.374-7.231,9.873,9.873,0,0,1,3.238-7.4c24.57-23.877,36.635-31.476,52.9-38.613,10.516-4.614,19.056-6.954,25.385-6.954,5.229,0,9.2,1.571,11.8,4.67,6.285,7.493,2.766,14.493.2,19.6l-.333.665c-2.736,5.473-44.734,78.564-55.566,96.981-4.982,8.469-7.149,12.821-8.054,15.057,2.56-.513,8.385-2.708,19.339-11.52,28.525-22.95,41.432-36.928,64.082-63.352a374.283,374.283,0,0,0,32.649-43.549c1.609-2.478,2.879-4.435,4-6,5.361-7.436,8-8.679,14.283-9.087l.444-.029c1.27-.085,2.525-.128,3.73-.128,7.526,0,12.065,1.652,14.28,5.2,3.622,5.8.432,11.424-2.131,15.946-.626,1.1-4.449,8-9.739,17.546-11.926,21.517-31.886,57.53-39.447,70.868-2.956,5.214-5.648,9.628-8.022,13.523s-4.971,8.155-6.383,11.09a75.89,75.89,0,0,0,12.551-7.455c4.108-2.852,12.608-11.381,18.766-18.1,3.394-3.7,6.718-4.479,8.907-4.479a9.462,9.462,0,0,1,6.7,2.8,10.02,10.02,0,0,1,2.744,7.633c-.317,8.865-10,20-29.6,34.026l-.15.1c-21.37,14.329-38.014,21.593-49.47,21.593-10.34,0-13.926-5.727-14.847-7.674h0c-2.378-4.914-2.527-13.975,13.85-43.553-31.542,27.306-51.3,40.644-61.32,46.659a30.7,30.7,0,0,1-15.831,4.757,24.214,24.214,0,0,1-6.816-.965C86.1,281.211,82.393,294.441,80.57,304.619c-1.829,10.213-4.106,22.923-14.755,37.412C60.113,349.791,50.927,354.24,40.613,354.24Z" transform="translate(-16.446 -37.819)" fill="#e4007f"></path>
	<path d="M179.716,87.122c3.284,0,5.755.8,7.2,2.526,3.922,4.677,1.659,8.6-.906,13.729S141.5,181.531,130.64,200s-10.26,20.307-8.449,22.57a5.225,5.225,0,0,0,4.3,1.674c4.146,0,11.547-2.679,24.363-12.99,28.151-22.648,41.34-36.663,64.877-64.122s32.288-43.453,36.965-49.941,5.733-6.336,10.259-6.638c1.036-.069,2.173-.114,3.331-.114,3.9,0,8.029.515,9.192,2.377,1.509,2.414.559,4.828-2.263,9.807-2.1,3.7-38.323,69.252-49.186,88.414s-18.708,28.364-15.54,33.192A3.346,3.346,0,0,0,211.5,225.6c5.309,0,14.971-6.5,19.318-9.516,5.431-3.772,15.549-14.372,19.765-18.971,1.806-1.971,3.332-2.534,4.485-2.534a3.374,3.374,0,0,1,2.413,1s9.007,7.474-26.062,32.578c-24.51,16.435-38.375,20.578-46.128,20.578-7.886,0-9.446-4.289-9.446-4.289-5.749-11.881,34.877-72.822,34.877-72.822-48.675,45.418-77.421,65.348-90.835,73.4a24.647,24.647,0,0,1-12.743,3.9,16.3,16.3,0,0,1-9.487-2.752c-17.439,32.578-21.11,46.854-23,57.392s-4.089,21.862-13.684,34.917c-5.295,7.2-13.51,9.762-20.367,9.762-5.567,0-10.238-1.688-11.718-3.943-3.3-5.033,12.111-28.93,17.366-37.278s76.7-135.674,79.933-141.574,29.4-48.44,27.621-52.617a2.906,2.906,0,0,0-2.985-1.66c-8.595,0-31.247,17.787-34.734,21.274-3,3-5.707,5.365-8.105,5.365a3.622,3.622,0,0,1-2.457-.99,3.821,3.821,0,0,1,.078-5.826c24.929-24.227,36.344-30.934,51.129-37.422,9.336-4.1,17.349-6.448,22.975-6.448m0-12c-7.264,0-16.356,2.44-27.8,7.46-16.939,7.432-29.441,15.284-54.672,39.805a15.994,15.994,0,0,0-5.055,11.818,16.359,16.359,0,0,0,5.321,11.539l.042.038.042.037a15.527,15.527,0,0,0,10.393,3.989c7.71,0,13.269-5.559,16.59-8.88.812-.8,2.249-2.015,4.057-3.436-3.171,5.51-6.3,10.8-8.634,14.757-2.173,3.677-3.608,6.106-4.332,7.427-3.959,7.218-74.627,133.107-79.565,140.95l-.8,1.271c-16.478,26.091-22.762,39.355-16.443,48.985,3.846,5.86,11.977,9.359,21.751,9.359,12.244,0,23.192-5.342,30.037-14.656,11.475-15.614,13.99-29.655,15.826-39.908,1.65-9.212,4.959-21.114,17.117-44.96a30.719,30.719,0,0,0,3.555.205,36.585,36.585,0,0,0,18.917-5.612c7.688-4.613,20.984-13.444,40.74-29.35-3.956,10.467-4.539,17.555-1.959,23.283,2.325,5.453,8.918,11.491,20.449,11.491,12.846,0,30.121-7.4,52.811-22.611l.153-.1.149-.106c21.8-15.609,31.705-27.541,32.1-38.691a16.183,16.183,0,0,0-4.586-12.182,15.445,15.445,0,0,0-10.853-4.464c-3.394,0-8.463,1.114-13.331,6.425-2.1,2.288-4.475,4.788-6.83,7.177,7.885-13.939,27.338-49.037,39.049-70.167,5.077-9.159,9.086-16.393,9.7-17.471,2.811-4.959,7.516-13.259,2-22.085-4.491-7.186-13.2-8.017-19.368-8.017-1.336,0-2.725.047-4.129.14l-.433.029c-8.483.551-12.691,3.145-18.762,11.566-1.211,1.679-2.516,3.69-4.169,6.235a368.579,368.579,0,0,1-32.173,42.913c-22.351,26.076-35.1,39.89-63.112,62.441,13-22.3,50.49-87.532,53.234-93.019l.328-.654a33.378,33.378,0,0,0,3.745-10.3,19.7,19.7,0,0,0-4.707-15.853c-2.607-3.108-7.568-6.814-16.395-6.814Z" transform="translate(-16.446 -37.819)" fill="#fff"></path>
	<path d="M295.592,127.579a7.818,7.818,0,0,1-5.287-2.048c-5.33-4.779-2.534-12.158,1.338-22.371a168.538,168.538,0,0,0,6.593-20.131l1.311-5.421c4.023-16.683,5.859-24.3,10.5-29.406,3.983-4.383,8.92-4.383,12.886-4.383,0,0,2.884.014,3.581.014,5.127,0,13.707,0,15.736,8.793,1.027,4.452.008,12.921-17.131,39.114-2.719,4.156-5.246,8.116-7.477,11.611C306.711,120.487,302.185,127.579,295.592,127.579Z" transform="translate(-16.446 -37.819)" fill="#e4007f"></path>
	<path d="M322.94,49.819c1.058,0,2.241.014,3.578.014,6.682,0,9.087.668,9.889,4.143s-2.138,12.829-16.3,34.479c-12.749,19.484-20.3,33.124-24.511,33.124a1.873,1.873,0,0,1-1.282-.515c-3.875-3.475,5.079-17.374,9.756-36.618s6.415-27.8,10.424-32.208c2-2.2,4.221-2.419,8.45-2.419m0-12c-4.323,0-11.559,0-17.329,6.347-5.677,6.244-7.626,14.326-11.9,32.032q-.617,2.556-1.31,5.414a161.1,161.1,0,0,1-6.373,19.422A100.54,100.54,0,0,0,282.1,112.7c-2.185,9.222,1.079,14.5,4.2,17.3a13.907,13.907,0,0,0,9.292,3.581c8.251,0,13.436-6.923,16.221-10.643,3.065-4.093,6.519-9.506,10.893-16.359,2.221-3.48,4.738-7.425,7.438-11.552,17.211-26.3,19.626-36.512,17.956-43.748a16.225,16.225,0,0,0-10.06-11.851c-3.379-1.322-7.05-1.593-11.522-1.593-.683,0-1.324,0-1.928-.007-.581,0-1.13-.007-1.65-.007Z" transform="translate(-16.446 -37.819)" fill="#fff"></path><path d="M296.258,254.637c-7.027,0-12.474-1.962-15.229-3.8-8.206-5.472-11.657-13.678-9.232-21.952,1.877-6.4,5.222-13.753,14.5-13.753,4.655,0,9.952,1.047,13.944,8.809a10.886,10.886,0,0,0,1.545,2.5c.677.4,2.666.765,5.914,1.08.189.017.378.026.569.026,5.1,0,11.415-5.961,11.6-13.362.121-4.928-1.872-8.025-4.395-11.946a35.026,35.026,0,0,1-5.146-10.608c-1.407-5.629-7.509-34.572,10.59-51.636,16.644-15.694,32.311-18.018,38.274-18.288.314-.015.629-.022.948-.022a18.9,18.9,0,0,1,13.552,5.429c2.371,2.439,5.158,6.836,4.96,13.942-.446,16.086-11.128,17.337-14.392,17.337h0q-.734,0-1.465-.059c-5.442-.433-9.2-3.714-11.164-9.752l-.078-.241c-.453-1.361-3.061-1.977-4.575-2.224a10.248,10.248,0,0,0-1.632-.139c-4.787,0-6.379,4.18-6.872,7.687-.789,5.608.694,11.978,4.535,19.475,3.089,6.03,8.707,21.667,7.7,30.488-2.353,20.648-11.24,33.475-30.675,44.272C311.985,252.369,303.985,254.637,296.258,254.637Z" transform="translate(-16.446 -37.819)" fill="#e4007f"></path>
	<path d="M360.141,127.682c5.962,0,12.783,3.574,12.515,13.2-.257,9.258-4.265,11.5-8.395,11.5-.329,0-.66-.014-.989-.04-4.446-.354-5.471-4.244-6.027-5.91s-2.159-5.084-9.3-6.248a16.142,16.142,0,0,0-2.6-.217c-6.937,0-11.7,4.92-12.814,12.851-1.249,8.886,2.221,17.354,5.137,23.047s7.888,19.985,7.08,27.072c-2.171,19.05-10.134,29.989-27.628,39.707-8.247,4.582-15.351,5.985-20.864,5.985-6.181,0-10.36-1.764-11.9-2.792-2.915-1.943-9.163-7.219-6.8-15.272s5.136-9.44,8.746-9.44,6.109.694,8.608,5.553,3.61,5.97,12.217,6.8q.572.056,1.148.055c8.312,0,17.33-8.466,17.6-19.214.278-11.246-7.636-15.827-9.719-24.157s-5.692-32.071,8.886-45.816,28.322-16.382,34.431-16.66q.335-.015.674-.015m0-12h0q-.613,0-1.218.027c-6.633.3-24.014,2.846-42.119,19.917-15.907,15-16.781,39.514-12.295,57.457a40.513,40.513,0,0,0,5.922,12.4c2.439,3.79,3.515,5.591,3.442,8.55-.112,4.517-4.038,7.51-5.6,7.51-1.2-.116-2.062-.223-2.677-.314l-.017-.032c-5.561-10.815-13.666-12.065-19.279-12.065-14.967,0-18.952,13.6-20.262,18.065-3.154,10.762,1.314,21.733,11.662,28.632,4.515,3.01,11.452,4.807,18.557,4.807,8.76,0,17.74-2.522,26.692-7.5,21.071-11.706,31.156-26.312,33.723-48.838,1.232-10.8-5.2-27.805-8.323-33.9-3.258-6.361-4.544-11.563-3.934-15.9a6.329,6.329,0,0,1,.783-2.517c.04,0,.089,0,.148,0a4.272,4.272,0,0,1,.667.061q.294.048.526.1c3.892,9.766,11.466,11.835,15.78,12.178.653.052,1.306.078,1.941.078a19.281,19.281,0,0,0,14.56-6.242c3.67-4.068,5.631-9.764,5.831-16.928.255-9.2-3.479-15.025-6.656-18.292a24.922,24.922,0,0,0-17.855-7.246Z" transform="translate(-16.446 -37.819)" fill="#fff"></path>
</svg>